<?xml version="1.0" encoding="iso-8859-1"?>
<!-- Generator: Adobe Illustrator 15.0.0, SVG Export Plug-In . SVG Version: 6.00 Build 0)  -->
<!DOCTYPE svg PUBLIC "-//W3C//DTD SVG 1.1//EN" "http://www.w3.org/Graphics/SVG/1.1/DTD/svg11.dtd">
<svg version="1.1" xmlns="http://www.w3.org/2000/svg" xmlns:xlink="http://www.w3.org/1999/xlink" x="0px" y="0px"
	 width="235.001px" height="234.999px" viewBox="0 0 235.001 234.999" style="enable-background:new 0 0 235.001 234.999;"
	 xml:space="preserve">
<g id="Road">
	<rect style="fill:#B1B1B1;" width="235.001" height="234.999"/>
	<path style="fill:#E3E3E3;" d="M117.5,18.502c-54.675,0-98.999,44.323-98.999,98.999c0,54.675,44.324,98.999,98.999,98.999
		c54.675,0,98.999-44.324,98.999-98.999C216.499,62.825,172.175,18.502,117.5,18.502z M117.5,202.979
		c-47.209,0-85.479-38.27-85.479-85.478c0-47.209,38.27-85.48,85.479-85.48s85.479,38.271,85.479,85.48
		C202.979,164.709,164.709,202.979,117.5,202.979z"/>
	<path style="fill:#EDA33F;" d="M197.227,117.501c0,44.03-35.694,79.724-79.726,79.724c-44.033,0-79.727-35.693-79.727-79.724
		c0-44.033,35.694-79.729,79.727-79.729C161.532,37.772,197.227,73.468,197.227,117.501z"/>
	<path style="fill:#352200;" d="M195.217,99.743c-4.619-1.503-10.236-2.966-14.989-3.582l-37.109-5.239
		c-42.729-5.281-76.604-2.885-101.455,1.968c-2.515,7.753-3.89,16.02-3.89,24.611c0,44.03,35.694,79.724,79.727,79.724
		c44.031,0,79.726-35.693,79.726-79.724C197.227,111.393,196.518,105.456,195.217,99.743z"/>
	<path style="fill:#58595B;" d="M143.118,90.922c-34.332,0-72.039,26.874-100.432,54.179c10.905,29.547,38.813,50.841,71.854,52.049
		c17.334-38.249,45.288-97.091,65.688-100.988L143.118,90.922z"/>
	<path style="fill:#FFE500;" d="M65.551,172.888c1.642-2.229,6.979-8.563,8.686-10.765l4.167,2.171
		c-1.592,2.271-6.749,8.582-8.292,10.905L65.551,172.888z"/>
	<path style="fill:#FFE500;" d="M80.389,154.179c1.748-2.148,5.912-7.058,7.719-9.178l3.292,1.904
		c-1.696,2.195-5.695,7.11-7.348,9.354L80.389,154.179z"/>
	<path style="fill:#FFE500;" d="M93.625,138.684c1.852-2.059,4.782-5.475,6.705-7.521l2.554,1.149
		c-1.782,2.09-4.595,5.573-6.355,7.733L93.625,138.684z"/>
	<path style="fill:#FFE500;" d="M106.182,125.145c1.962-1.955,3.993-3.919,6.031-5.817l2.087,0.942
		c-1.937,1.985-3.808,3.976-5.685,6.038L106.182,125.145z"/>
	<path style="fill:#FFE500;" d="M118.471,113.734c2.104-1.8,4.293-3.591,6.5-5.291l1.957,0.71c-2.111,1.798-4.142,3.625-6.171,5.54
		L118.471,113.734z"/>
	<path style="fill:#FFE500;" d="M131.785,103.534c2.303-1.538,4.718-3.023,7.168-4.353l1.256,0.443
		c-2.37,1.44-4.625,2.981-6.869,4.639L131.785,103.534z"/>
	<path style="fill:#FFE500;" d="M146.567,95.656c2.609-0.982,5.319-1.758,8.079-2.167l0.037,0.218
		c-2.722,0.539-5.348,1.431-7.889,2.527L146.567,95.656z"/>
</g>
<g id="Layer_1">
</g>
</svg>
